<svg xmlns="http://www.w3.org/2000/svg" viewBox="0 0 200 200" width="200" height="200">
  <defs>
    <radialGradient id="bg" cx="50%" cy="50%" r="50%">
      <stop offset="0%" stop-color="#1a0a2e"/>
      <stop offset="100%" stop-color="#0a0a1a"/>
    </radialGradient>
    <filter id="glow">
      <feGaussianBlur stdDeviation="3" result="coloredBlur"/>
      <feMerge><feMergeNode in="coloredBlur"/><feMergeNode in="SourceGraphic"/></feMerge>
    </filter>
  </defs>
  <rect width="200" height="200" fill="url(#bg)" rx="8"/>
  <rect x="2" y="2" width="196" height="196" fill="none" stroke="#00ff88" stroke-width="1.5" rx="7" opacity="0.7"/>
  <rect x="6" y="6" width="188" height="188" fill="none" stroke="#00d4ff" stroke-width="0.5" rx="5" opacity="0.4"/>
  
  <polygon points="100,35 118,50 118,90 100,105 82,90 82,50" fill="none" stroke="#00ff88" stroke-width="1.5" filter="url(#glow)"/>
  <path d="M82,55 Q70,60 68,75 Q70,90 82,95" fill="none" stroke="#00ff88" stroke-width="1.5"/>
  <path d="M118,55 Q130,60 132,75 Q130,90 118,95" fill="none" stroke="#00ff88" stroke-width="1.5"/>
  <rect x="80" y="105" width="40" height="55" rx="3" fill="none" stroke="#00ff88" stroke-width="1.5"/>
  <circle cx="100" cy="70" r="8" fill="#00ff88" opacity="0.3" filter="url(#glow)"/>
  
  <text x="100" y="182" text-anchor="middle" fill="#00ff88" font-family="monospace" font-size="11" filter="url(#glow)" opacity="0.9">Elf Ranger</text>
</svg>