<svg xmlns="http://www.w3.org/2000/svg" viewBox="0 0 200 200" width="200" height="200">
  <defs>
    <radialGradient id="bg" cx="50%" cy="50%" r="50%">
      <stop offset="0%" stop-color="#1a0a2e"/>
      <stop offset="100%" stop-color="#0a0a1a"/>
    </radialGradient>
    <filter id="glow">
      <feGaussianBlur stdDeviation="3" result="coloredBlur"/>
      <feMerge><feMergeNode in="coloredBlur"/><feMergeNode in="SourceGraphic"/></feMerge>
    </filter>
  </defs>
  <rect width="200" height="200" fill="url(#bg)" rx="8"/>
  <rect x="2" y="2" width="196" height="196" fill="none" stroke="#aa44ff" stroke-width="1.5" rx="7" opacity="0.7"/>
  <rect x="6" y="6" width="188" height="188" fill="none" stroke="#7b2fff" stroke-width="0.5" rx="5" opacity="0.4"/>
  
  <path d="M70,40 Q100,30 130,40 L135,100 Q100,115 65,100 Z" fill="none" stroke="#aa44ff" stroke-width="1.5" filter="url(#glow)"/>
  <path d="M65,100 Q55,115 50,140 L70,145 Q75,120 80,110" fill="none" stroke="#aa44ff" stroke-width="1.5"/>
  <path d="M135,100 Q145,115 150,140 L130,145 Q125,120 120,110" fill="none" stroke="#aa44ff" stroke-width="1.5"/>
  <path d="M80,110 Q100,125 120,110 L120,160 Q100,170 80,160 Z" fill="none" stroke="#aa44ff" stroke-width="1.5"/>
  <circle cx="100" cy="65" r="10" fill="#aa44ff" opacity="0.4" filter="url(#glow)"/>
  
  <text x="100" y="182" text-anchor="middle" fill="#aa44ff" font-family="monospace" font-size="11" filter="url(#glow)" opacity="0.9">Mage Robe</text>
</svg>